<?xml version="1.0" encoding="UTF-8"?>
<!DOCTYPE svg PUBLIC "-//W3C//DTD SVG 1.1//EN" "http://www.w3.org/Graphics/SVG/1.1/DTD/svg11.dtd">
<svg xmlns="http://www.w3.org/2000/svg" version="1.1" width="50px" height="50px" style="shape-rendering:geometricPrecision; text-rendering:geometricPrecision; image-rendering:optimizeQuality; fill-rule:evenodd; clip-rule:evenodd" xmlns:xlink="http://www.w3.org/1999/xlink">
<g><path style="opacity:0.951" fill="#e6edb7" d="M 39.5,36.5 C 38.6618,36.8417 38.3284,37.5084 38.5,38.5C 29.6586,44.9147 20.6586,45.0813 11.5,39C 10.035,37.2258 8.70166,35.3925 7.5,33.5C 8.98952,31.0517 8.32285,29.3851 5.5,28.5C 4.97009,11.8625 12.9701,4.3625 29.5,6C 40.5597,9.94236 45.0597,17.7757 43,29.5C 42.3471,32.1392 41.1804,34.4726 39.5,36.5 Z"/></g>
<g><path style="opacity:1" fill="#f0bb19" d="M 39.5,4.5 C 43.1612,4.35012 44.1612,5.85012 42.5,9C 39.8882,9.74137 38.2215,8.74137 37.5,6C 38.4158,5.72158 39.0825,5.22158 39.5,4.5 Z"/></g>
<g><path style="opacity:0.554" fill="#87ac44" d="M 41.5,10.5 C 42.675,10.281 43.675,10.6143 44.5,11.5C 42.9483,12.7979 41.9483,12.4646 41.5,10.5 Z"/></g>
<g><path style="opacity:1" fill="#71b1b5" d="M 26.5,13.5 C 26.8256,17.8839 26.4922,22.2172 25.5,26.5C 24.8165,26.8627 24.1499,27.1961 23.5,27.5C 23.5,23.1667 23.5,18.8333 23.5,14.5C 24.209,13.596 25.209,13.2627 26.5,13.5 Z"/></g>
<g><path style="opacity:1" fill="#735456" d="M 33.5,27.5 C 30.0381,28.4816 26.3714,28.815 22.5,28.5C 22.5,28.1667 22.5,27.8333 22.5,27.5C 22.8333,27.5 23.1667,27.5 23.5,27.5C 24.1499,27.1961 24.8165,26.8627 25.5,26.5C 26.4922,22.2172 26.8256,17.8839 26.5,13.5C 27.5521,11.744 29.2188,11.0773 31.5,11.5C 33.0307,16.6922 33.6974,22.0255 33.5,27.5 Z"/></g>
<g><path style="opacity:1" fill="#db4d61" d="M 27.5,12.5 C 28.5,12.5 29.5,12.5 30.5,12.5C 30.5,17.5 30.5,22.5 30.5,27.5C 29.5,27.5 28.5,27.5 27.5,27.5C 27.5,22.5 27.5,17.5 27.5,12.5 Z"/></g>
<g><path style="opacity:1" fill="#e9d658" d="M 21.5,19.5 C 19.9925,21.1815 18.9925,23.1815 18.5,25.5C 17.788,26.7387 16.788,27.2387 15.5,27C 16.1804,24.3849 17.1804,21.5515 18.5,18.5C 21.4122,15.4623 22.4122,15.7956 21.5,19.5 Z"/></g>
<g><path style="opacity:1" fill="#887f66" d="M 23.5,14.5 C 23.5,18.8333 23.5,23.1667 23.5,27.5C 23.1667,27.5 22.8333,27.5 22.5,27.5C 22.8064,24.6146 22.4731,21.9479 21.5,19.5C 22.4122,15.7956 21.4122,15.4623 18.5,18.5C 19.2061,16.1236 20.8727,14.7903 23.5,14.5 Z"/></g>
<g><path style="opacity:1" fill="#cece9d" d="M 21.5,19.5 C 22.4731,21.9479 22.8064,24.6146 22.5,27.5C 20.5168,27.8432 19.1834,27.1765 18.5,25.5C 18.9925,23.1815 19.9925,21.1815 21.5,19.5 Z"/></g>
<g><path style="opacity:1" fill="#95835e" d="M 18.5,18.5 C 17.1804,21.5515 16.1804,24.3849 15.5,27C 16.788,27.2387 17.788,26.7387 18.5,25.5C 19.1834,27.1765 20.5168,27.8432 22.5,27.5C 22.5,27.8333 22.5,28.1667 22.5,28.5C 19.5,28.5 16.5,28.5 13.5,28.5C 13.1667,28.5 12.8333,28.5 12.5,28.5C 14.0116,24.7991 16.0116,21.4658 18.5,18.5 Z"/></g>
<g><path style="opacity:0.838" fill="#facc58" d="M 5.5,28.5 C 8.32285,29.3851 8.98952,31.0517 7.5,33.5C 4.49693,32.83 3.83026,31.1633 5.5,28.5 Z"/></g>
<g><path style="opacity:1" fill="#b57a55" d="M 33.5,27.5 C 34.791,27.2627 35.791,27.596 36.5,28.5C 35.7784,28.9175 35.2784,29.5842 35,30.5C 29.2168,29.2267 23.3834,29.2267 17.5,30.5C 15.8295,30.3318 14.4961,29.6651 13.5,28.5C 16.5,28.5 19.5,28.5 22.5,28.5C 26.3714,28.815 30.0381,28.4816 33.5,27.5 Z"/></g>
<g><path style="opacity:1" fill="#7a5744" d="M 12.5,28.5 C 12.8333,28.5 13.1667,28.5 13.5,28.5C 14.4961,29.6651 15.8295,30.3318 17.5,30.5C 23.3834,29.2267 29.2168,29.2267 35,30.5C 35.2784,29.5842 35.7784,28.9175 36.5,28.5C 35.36,31.0248 34.6933,33.6915 34.5,36.5C 33.1667,36.5 31.8333,36.5 30.5,36.5C 30.5,34.8333 30.5,33.1667 30.5,31.5C 26.8333,31.5 23.1667,31.5 19.5,31.5C 19.5,33.1667 19.5,34.8333 19.5,36.5C 18.1667,36.5 16.8333,36.5 15.5,36.5C 15.5,34.8333 15.5,33.1667 15.5,31.5C 14.5,31.5 13.5,31.5 12.5,31.5C 12.5,30.5 12.5,29.5 12.5,28.5 Z"/></g>
<g><path style="opacity:1" fill="#c07e55" d="M 16.5,31.5 C 17.5862,31.62 18.2528,32.2867 18.5,33.5C 18.1667,34.1667 17.8333,34.8333 17.5,35.5C 16.5713,34.3112 16.238,32.9778 16.5,31.5 Z"/></g>
<g><path style="opacity:1" fill="#c07e55" d="M 31.5,31.5 C 32.5862,31.62 33.2528,32.2867 33.5,33.5C 33.1667,34.1667 32.8333,34.8333 32.5,35.5C 31.5713,34.3112 31.238,32.9778 31.5,31.5 Z"/></g>
<g><path style="opacity:0.511" fill="#facc58" d="M 39.5,36.5 C 40.3764,36.3691 41.0431,36.7025 41.5,37.5C 40.675,38.3857 39.675,38.719 38.5,38.5C 38.3284,37.5084 38.6618,36.8417 39.5,36.5 Z"/></g>
<g><path style="opacity:0.583" fill="#89ac45" d="M 10.5,41.5 C 11.5,41.5 12.5,41.5 13.5,41.5C 13.5,42.5 13.5,43.5 13.5,44.5C 12.5,44.5 11.5,44.5 10.5,44.5C 10.5,43.5 10.5,42.5 10.5,41.5 Z"/></g>
</svg>
